# xmcd
#
# Track frame offsets:
#	150
#	3025
#	26350
#	46737
#	64360
#	91502
#	95162
#	116527
#	124052
#	144630
#	151447
#	174987
#	195902
#	216002
#	248940
#
# Disc length: 3617 seconds
#
# Revision: 1
# Processed by: cddbd v1.5.1PL0 Copyright (c) Steve Scherf et al.
# Submitted via: CDex 1.50Beta5
#
DISCID=bb0e1f0f
DTITLE=Noa Noa - Noa Noa
DYEAR=1900
DGENRE=
TTITLE0=Introduction: The Forest
TTITLE1=Somewhere In The Sky
TTITLE2=New Days For You
TTITLE3=笑ってたいね
TTITLE4=夢の途中
TTITLE5=Interlude: The Chaos
TTITLE6=Wonderful Life
TTITLE7=Interlude: Alegre
TTITLE8=ここから
TTITLE9=Interlude: Triste
TTITLE10=Outra Vez
TTITLE11=Don't You Worry 'Bout A Thing
TTITLE12=Ginga
TTITLE13=The Music Of The Earth
TTITLE14=Todo O Dia
EXTD=
EXTT0=
EXTT1=
EXTT2=
EXTT3=
EXTT4=
EXTT5=
EXTT6=
EXTT7=
EXTT8=
EXTT9=
EXTT10=
EXTT11=
EXTT12=
EXTT13=
EXTT14=
PLAYORDER=
